External Loads File
version=1
nRows=31
nColumns=13
Range=5.000000e-03-10 seconds
endheader
time 	forceRightX 	forceRightY 	forceRightZ 	pointRightX 	pointRightY 	pointRightZ 	forceLeftX 	forceLeftY 	forceLeftZ 	pointLeftX 	pointLeftY 	pointLeftZ 		
0.005000 -119.738765 -59.475818 -0.000000 0.000000 0.000000 0.000000 -88.635760 -56.763212 -0.000000 0.000000 0.000000 0.000000
0.010000 -118.971071 -59.361916 -0.000000 0.000000 0.000000 0.000000 -90.331306 -56.867693 -0.000000 0.000000 0.000000 0.000000
0.015000 -118.258305 -59.224252 -0.000000 0.000000 0.000000 0.000000 -91.892163 -56.971827 -0.000000 0.000000 0.000000 0.000000
0.020000 -117.646169 -59.060728 -0.000000 0.000000 0.000000 0.000000 -93.199437 -57.078029 -0.000000 0.000000 0.000000 0.000000
0.025000 -117.153855 -58.897248 -0.000000 0.000000 0.000000 0.000000 -94.267382 -57.186137 -0.000000 0.000000 0.000000 0.000000
0.030000 -116.779940 -58.766927 -0.000000 0.000000 0.000000 0.000000 -95.169584 -57.288857 -0.000000 0.000000 0.000000 0.000000
0.035000 -116.516444 -58.679063 -0.000000 0.000000 0.000000 0.000000 -95.992980 -57.369095 -0.000000 0.000000 0.000000 0.000000
0.040000 -116.351181 -58.612112 -0.000000 0.000000 0.000000 0.000000 -96.822696 -57.408108 -0.000000 0.000000 0.000000 0.000000
0.045000 -116.267408 -58.536070 -0.000000 0.000000 0.000000 0.000000 -97.705558 -57.396458 -0.000000 0.000000 0.000000 0.000000
0.050000 -116.251533 -58.434963 -0.000000 0.000000 0.000000 0.000000 -98.653432 -57.340670 -0.000000 0.000000 0.000000 0.000000
0.055000 -116.296647 -58.308621 -0.000000 0.000000 0.000000 0.000000 -99.658321 -57.261561 -0.000000 0.000000 0.000000 0.000000
0.060000 -116.397687 -58.160526 -0.000000 0.000000 0.000000 0.000000 -100.653421 -57.182285 -0.000000 0.000000 0.000000 0.000000
0.065000 -116.548114 -57.990299 -0.000000 0.000000 0.000000 0.000000 -101.533734 -57.116389 -0.000000 0.000000 0.000000 0.000000
0.070000 -116.735823 -57.797299 -0.000000 0.000000 0.000000 0.000000 -102.246709 -57.064272 -0.000000 0.000000 0.000000 0.000000
0.075000 -116.938883 -57.587459 -0.000000 0.000000 0.000000 0.000000 -102.791118 -57.016421 -0.000000 0.000000 0.000000 0.000000
0.080000 -117.129055 -57.373620 -0.000000 0.000000 0.000000 0.000000 -103.171319 -56.963376 -0.000000 0.000000 0.000000 0.000000
0.085000 -117.282734 -57.168762 -0.000000 0.000000 0.000000 0.000000 -103.416353 -56.906070 -0.000000 0.000000 0.000000 0.000000
0.090000 -117.394520 -56.983016 -0.000000 0.000000 0.000000 0.000000 -103.562722 -56.853247 -0.000000 0.000000 0.000000 0.000000
0.095000 -117.478069 -56.826503 -0.000000 0.000000 0.000000 0.000000 -103.594734 -56.811519 -0.000000 0.000000 0.000000 0.000000
0.100000 -117.548238 -56.707165 -0.000000 0.000000 0.000000 0.000000 -103.462157 -56.784562 -0.000000 0.000000 0.000000 0.000000
0.105000 -117.605445 -56.624765 -0.000000 0.000000 0.000000 0.000000 -103.130523 -56.777655 -0.000000 0.000000 0.000000 0.000000
0.110000 -117.637809 -56.571111 -0.000000 0.000000 0.000000 0.000000 -102.601656 -56.795886 -0.000000 0.000000 0.000000 0.000000
0.115000 -117.635402 -56.535574 -0.000000 0.000000 0.000000 0.000000 -101.929142 -56.839171 -0.000000 0.000000 0.000000 0.000000
0.120000 -117.599759 -56.510489 -0.000000 0.000000 0.000000 0.000000 -101.190203 -56.900486 -0.000000 0.000000 0.000000 0.000000
0.125000 -117.542700 -56.495675 -0.000000 0.000000 0.000000 0.000000 -100.431714 -56.966871 -0.000000 0.000000 0.000000 0.000000
0.130000 -117.482119 -56.500353 -0.000000 0.000000 0.000000 0.000000 -99.689376 -57.022879 -0.000000 0.000000 0.000000 0.000000
0.135000 -117.432104 -56.537829 -0.000000 0.000000 0.000000 0.000000 -99.012671 -57.056258 -0.000000 0.000000 0.000000 0.000000
0.140000 -117.392365 -56.615565 -0.000000 0.000000 0.000000 0.000000 -98.420308 -57.061041 -0.000000 0.000000 0.000000 0.000000
0.145000 -117.360599 -56.729234 -0.000000 0.000000 0.000000 0.000000 -97.893360 -57.035064 -0.000000 0.000000 0.000000 0.000000
0.150000 -117.356355 -56.860663 -0.000000 0.000000 0.000000 0.000000 -97.408175 -56.977576 -0.000000 0.000000 0.000000 0.000000
0.155000 -117.408585 -56.977922 -0.000000 0.000000 0.000000 0.000000 -96.924772 -56.891184 -0.000000 0.000000 0.000000 0.000000
